# MagicaVoxel @ Ephtracy

# group
g TRoad

# material
mtllib TRoad.mtl
usemtl palette

# normals
vn -1 0 0
vn 1 0 0
vn 0 0 1
vn 0 0 -1
vn 0 -1 0
vn 0 1 0

# texcoords
vt 0.958984 0.5
vt 0.962891 0.5
vt 0.970703 0.5
vt 0.990234 0.5

# verts
v -20 0 20
v -20 0 14
v -20 0 12
v -20 0 10
v -20 0 8
v -20 0 6
v -20 0 4
v -20 0 2
v -20 0 -2
v -20 0 -4
v -20 0 -6
v -20 0 -8
v -20 0 -10
v -20 0 -12
v -20 0 -14
v -20 0 -20
v -20 1 14
v -20 1 12
v -20 1 10
v -20 1 8
v -20 1 6
v -20 1 4
v -20 1 2
v -20 1 -2
v -20 1 -4
v -20 1 -6
v -20 1 -8
v -20 1 -10
v -20 1 -12
v -20 1 -14
v -20 2 20
v -20 2 14
v -20 2 -14
v -20 2 -20
v 14 1 20
v 14 1 -20
v 14 2 20
v 14 2 -20
v -14 1 20
v -14 1 14
v -14 1 -14
v -14 1 -20
v -14 2 20
v -14 2 14
v -14 2 -14
v -14 2 -20
v 20 0 20
v 20 0 -20
v 20 2 20
v 20 2 -20
v -20 0 20
v -20 2 20
v -14 0 20
v -14 1 20
v -14 2 20
v -12 0 20
v -12 1 20
v -10 0 20
v -10 1 20
v -8 0 20
v -8 1 20
v -6 0 20
v -6 1 20
v -4 0 20
v -4 1 20
v -2 0 20
v -2 1 20
v 2 0 20
v 2 1 20
v 4 0 20
v 4 1 20
v 6 0 20
v 6 1 20
v 8 0 20
v 8 1 20
v 10 0 20
v 10 1 20
v 12 0 20
v 12 1 20
v 14 0 20
v 14 1 20
v 14 2 20
v 20 0 20
v 20 2 20
v -20 1 -14
v -20 2 -14
v -14 1 -14
v -14 2 -14
v -20 1 14
v -20 2 14
v -14 1 14
v -14 2 14
v -20 0 -20
v -20 2 -20
v -14 0 -20
v -14 1 -20
v -14 2 -20
v -12 0 -20
v -12 1 -20
v -10 0 -20
v -10 1 -20
v -8 0 -20
v -8 1 -20
v -6 0 -20
v -6 1 -20
v -4 0 -20
v -4 1 -20
v -2 0 -20
v -2 1 -20
v 2 0 -20
v 2 1 -20
v 4 0 -20
v 4 1 -20
v 6 0 -20
v 6 1 -20
v 8 0 -20
v 8 1 -20
v 10 0 -20
v 10 1 -20
v 12 0 -20
v 12 1 -20
v 14 0 -20
v 14 1 -20
v 14 2 -20
v 20 0 -20
v 20 2 -20
v -20 0 20
v -14 0 20
v -12 0 20
v -10 0 20
v -8 0 20
v -6 0 20
v -4 0 20
v -2 0 20
v 2 0 20
v 4 0 20
v 6 0 20
v 8 0 20
v 10 0 20
v 12 0 20
v 14 0 20
v 20 0 20
v -8 0 18
v -6 0 18
v -20 0 14
v -14 0 14
v -12 0 14
v -10 0 14
v -8 0 14
v -6 0 14
v -4 0 14
v -2 0 14
v 2 0 14
v 4 0 14
v 6 0 14
v 8 0 14
v 10 0 14
v 12 0 14
v -20 0 12
v -14 0 12
v -20 0 10
v -14 0 10
v -20 0 8
v -14 0 8
v -20 0 6
v -14 0 6
v -20 0 4
v -14 0 4
v -20 0 2
v -14 0 2
v -20 0 -2
v -14 0 -2
v -20 0 -4
v -14 0 -4
v -20 0 -6
v -14 0 -6
v -20 0 -8
v -14 0 -8
v -20 0 -10
v -14 0 -10
v -20 0 -12
v -14 0 -12
v -20 0 -14
v -14 0 -14
v -12 0 -14
v -10 0 -14
v -8 0 -14
v -6 0 -14
v -4 0 -14
v -2 0 -14
v 2 0 -14
v 4 0 -14
v 6 0 -14
v 8 0 -14
v 10 0 -14
v 12 0 -14
v -20 0 -20
v -14 0 -20
v -12 0 -20
v -10 0 -20
v -8 0 -20
v -6 0 -20
v -4 0 -20
v -2 0 -20
v 2 0 -20
v 4 0 -20
v 6 0 -20
v 8 0 -20
v 10 0 -20
v 12 0 -20
v 14 0 -20
v 20 0 -20
v -14 1 20
v -12 1 20
v -10 1 20
v -8 1 20
v -6 1 20
v -4 1 20
v -2 1 20
v 2 1 20
v 4 1 20
v 6 1 20
v 8 1 20
v 10 1 20
v 12 1 20
v 14 1 20
v -8 1 18
v -6 1 18
v -20 1 14
v -14 1 14
v -12 1 14
v -10 1 14
v -8 1 14
v -6 1 14
v -4 1 14
v -2 1 14
v 2 1 14
v 4 1 14
v 6 1 14
v 8 1 14
v 10 1 14
v 12 1 14
v -20 1 12
v -14 1 12
v -20 1 10
v -14 1 10
v -20 1 8
v -14 1 8
v -20 1 6
v -14 1 6
v -20 1 4
v -14 1 4
v -20 1 2
v -14 1 2
v -20 1 -2
v -14 1 -2
v -20 1 -4
v -14 1 -4
v -20 1 -6
v -14 1 -6
v -20 1 -8
v -14 1 -8
v -20 1 -10
v -14 1 -10
v -20 1 -12
v -14 1 -12
v -20 1 -14
v -14 1 -14
v -12 1 -14
v -10 1 -14
v -8 1 -14
v -6 1 -14
v -4 1 -14
v -2 1 -14
v 2 1 -14
v 4 1 -14
v 6 1 -14
v 8 1 -14
v 10 1 -14
v 12 1 -14
v -14 1 -20
v -12 1 -20
v -10 1 -20
v -8 1 -20
v -6 1 -20
v -4 1 -20
v -2 1 -20
v 2 1 -20
v 4 1 -20
v 6 1 -20
v 8 1 -20
v 10 1 -20
v 12 1 -20
v 14 1 -20
v -20 2 20
v -14 2 20
v 14 2 20
v 20 2 20
v -20 2 14
v -14 2 14
v -20 2 -14
v -14 2 -14
v -20 2 -20
v -14 2 -20
v 14 2 -20
v 20 2 -20

# faces
f 17/3/1 2/3/1 1/3/1
f 17/4/1 3/4/1 2/4/1
f 18/1/1 4/1/1 3/1/1
f 18/4/1 3/4/1 17/4/1
f 19/4/1 5/4/1 4/4/1
f 19/1/1 4/1/1 18/1/1
f 20/1/1 6/1/1 5/1/1
f 20/4/1 5/4/1 19/4/1
f 21/4/1 7/4/1 6/4/1
f 21/1/1 6/1/1 20/1/1
f 22/1/1 8/1/1 7/1/1
f 22/4/1 7/4/1 21/4/1
f 23/4/1 9/4/1 8/4/1
f 23/1/1 8/1/1 22/1/1
f 24/1/1 10/1/1 9/1/1
f 24/4/1 9/4/1 23/4/1
f 25/4/1 11/4/1 10/4/1
f 25/1/1 10/1/1 24/1/1
f 26/1/1 12/1/1 11/1/1
f 26/4/1 11/4/1 25/4/1
f 27/4/1 13/4/1 12/4/1
f 27/1/1 12/1/1 26/1/1
f 28/1/1 14/1/1 13/1/1
f 28/4/1 13/4/1 27/4/1
f 29/4/1 15/4/1 14/4/1
f 29/1/1 14/1/1 28/1/1
f 30/3/1 16/3/1 15/3/1
f 30/4/1 15/4/1 29/4/1
f 31/3/1 17/3/1 1/3/1
f 32/3/1 17/3/1 31/3/1
f 33/3/1 16/3/1 30/3/1
f 34/3/1 16/3/1 33/3/1
f 37/3/1 36/3/1 35/3/1
f 38/3/1 36/3/1 37/3/1
f 39/3/2 40/3/2 43/3/2
f 43/3/2 40/3/2 44/3/2
f 41/3/2 42/3/2 45/3/2
f 45/3/2 42/3/2 46/3/2
f 47/3/2 48/3/2 49/3/2
f 49/3/2 48/3/2 50/3/2
f 53/3/3 52/3/3 51/3/3
f 54/3/3 52/3/3 53/3/3
f 55/3/3 52/3/3 54/3/3
f 56/4/3 54/4/3 53/4/3
f 57/4/3 54/4/3 56/4/3
f 58/2/3 57/2/3 56/2/3
f 59/2/3 57/2/3 58/2/3
f 60/4/3 59/4/3 58/4/3
f 61/4/3 59/4/3 60/4/3
f 62/2/3 61/2/3 60/2/3
f 63/2/3 61/2/3 62/2/3
f 64/4/3 63/4/3 62/4/3
f 65/4/3 63/4/3 64/4/3
f 66/1/3 65/1/3 64/1/3
f 67/1/3 65/1/3 66/1/3
f 68/4/3 67/4/3 66/4/3
f 69/4/3 67/4/3 68/4/3
f 70/1/3 69/1/3 68/1/3
f 71/1/3 69/1/3 70/1/3
f 72/4/3 71/4/3 70/4/3
f 73/4/3 71/4/3 72/4/3
f 74/2/3 73/2/3 72/2/3
f 75/2/3 73/2/3 74/2/3
f 76/4/3 75/4/3 74/4/3
f 77/4/3 75/4/3 76/4/3
f 78/2/3 77/2/3 76/2/3
f 79/2/3 77/2/3 78/2/3
f 80/4/3 79/4/3 78/4/3
f 81/4/3 79/4/3 80/4/3
f 83/3/3 81/3/3 80/3/3
f 83/3/3 82/3/3 81/3/3
f 84/3/3 82/3/3 83/3/3
f 87/3/3 86/3/3 85/3/3
f 88/3/3 86/3/3 87/3/3
f 89/3/4 90/3/4 91/3/4
f 91/3/4 90/3/4 92/3/4
f 93/3/4 94/3/4 95/3/4
f 95/3/4 94/3/4 96/3/4
f 96/3/4 94/3/4 97/3/4
f 95/4/4 96/4/4 98/4/4
f 98/4/4 96/4/4 99/4/4
f 98/1/4 99/1/4 100/1/4
f 100/1/4 99/1/4 101/1/4
f 100/4/4 101/4/4 102/4/4
f 102/4/4 101/4/4 103/4/4
f 102/1/4 103/1/4 104/1/4
f 104/1/4 103/1/4 105/1/4
f 104/4/4 105/4/4 106/4/4
f 106/4/4 105/4/4 107/4/4
f 106/1/4 107/1/4 108/1/4
f 108/1/4 107/1/4 109/1/4
f 108/4/4 109/4/4 110/4/4
f 110/4/4 109/4/4 111/4/4
f 110/1/4 111/1/4 112/1/4
f 112/1/4 111/1/4 113/1/4
f 112/4/4 113/4/4 114/4/4
f 114/4/4 113/4/4 115/4/4
f 114/1/4 115/1/4 116/1/4
f 116/1/4 115/1/4 117/1/4
f 116/4/4 117/4/4 118/4/4
f 118/4/4 117/4/4 119/4/4
f 118/1/4 119/1/4 120/1/4
f 120/1/4 119/1/4 121/1/4
f 120/4/4 121/4/4 122/4/4
f 122/4/4 121/4/4 123/4/4
f 122/3/4 123/3/4 125/3/4
f 123/3/4 124/3/4 125/3/4
f 125/3/4 124/3/4 126/3/4
f 143/4/5 131/4/5 130/4/5
f 143/2/5 132/2/5 131/2/5
f 144/4/5 133/4/5 132/4/5
f 144/2/5 132/2/5 143/2/5
f 145/3/5 128/3/5 127/3/5
f 146/4/5 129/4/5 128/4/5
f 146/3/5 128/3/5 145/3/5
f 147/2/5 130/2/5 129/2/5
f 147/4/5 129/4/5 146/4/5
f 148/4/5 143/4/5 130/4/5
f 148/2/5 130/2/5 147/2/5
f 149/1/5 144/1/5 143/1/5
f 149/4/5 143/4/5 148/4/5
f 150/4/5 133/4/5 144/4/5
f 150/1/5 144/1/5 149/1/5
f 151/1/5 134/1/5 133/1/5
f 151/4/5 133/4/5 150/4/5
f 152/4/5 135/4/5 134/4/5
f 152/1/5 134/1/5 151/1/5
f 153/1/5 136/1/5 135/1/5
f 153/4/5 135/4/5 152/4/5
f 154/4/5 137/4/5 136/4/5
f 154/1/5 136/1/5 153/1/5
f 155/2/5 138/2/5 137/2/5
f 155/4/5 137/4/5 154/4/5
f 156/4/5 139/4/5 138/4/5
f 156/2/5 138/2/5 155/2/5
f 157/2/5 140/2/5 139/2/5
f 157/4/5 139/4/5 156/4/5
f 158/4/5 141/4/5 140/4/5
f 158/2/5 140/2/5 157/2/5
f 159/4/5 149/4/5 148/4/5
f 159/4/5 146/4/5 145/4/5
f 159/4/5 158/4/5 157/4/5
f 159/4/5 148/4/5 147/4/5
f 159/4/5 156/4/5 155/4/5
f 159/4/5 155/4/5 154/4/5
f 159/4/5 154/4/5 153/4/5
f 159/4/5 153/4/5 152/4/5
f 159/4/5 152/4/5 151/4/5
f 159/4/5 151/4/5 150/4/5
f 159/4/5 150/4/5 149/4/5
f 159/4/5 147/4/5 146/4/5
f 159/4/5 157/4/5 156/4/5
f 160/4/5 158/4/5 159/4/5
f 161/1/5 160/1/5 159/1/5
f 162/4/5 158/4/5 160/4/5
f 162/1/5 160/1/5 161/1/5
f 163/4/5 162/4/5 161/4/5
f 164/4/5 158/4/5 162/4/5
f 164/4/5 162/4/5 163/4/5
f 165/1/5 164/1/5 163/1/5
f 166/4/5 158/4/5 164/4/5
f 166/1/5 164/1/5 165/1/5
f 167/4/5 166/4/5 165/4/5
f 168/4/5 158/4/5 166/4/5
f 168/4/5 166/4/5 167/4/5
f 169/1/5 168/1/5 167/1/5
f 170/4/5 158/4/5 168/4/5
f 170/1/5 168/1/5 169/1/5
f 171/4/5 170/4/5 169/4/5
f 172/4/5 158/4/5 170/4/5
f 172/4/5 170/4/5 171/4/5
f 173/1/5 172/1/5 171/1/5
f 174/4/5 158/4/5 172/4/5
f 174/1/5 172/1/5 173/1/5
f 175/4/5 174/4/5 173/4/5
f 176/4/5 158/4/5 174/4/5
f 176/4/5 174/4/5 175/4/5
f 177/1/5 176/1/5 175/1/5
f 178/4/5 158/4/5 176/4/5
f 178/1/5 176/1/5 177/1/5
f 179/4/5 178/4/5 177/4/5
f 180/4/5 158/4/5 178/4/5
f 180/4/5 178/4/5 179/4/5
f 181/1/5 180/1/5 179/1/5
f 182/4/5 158/4/5 180/4/5
f 182/1/5 180/1/5 181/1/5
f 183/4/5 182/4/5 181/4/5
f 184/4/5 158/4/5 182/4/5
f 184/4/5 182/4/5 183/4/5
f 185/4/5 158/4/5 184/4/5
f 186/4/5 158/4/5 185/4/5
f 187/4/5 158/4/5 186/4/5
f 188/4/5 158/4/5 187/4/5
f 189/4/5 158/4/5 188/4/5
f 190/4/5 158/4/5 189/4/5
f 191/4/5 158/4/5 190/4/5
f 192/4/5 158/4/5 191/4/5
f 193/4/5 158/4/5 192/4/5
f 194/4/5 158/4/5 193/4/5
f 195/4/5 158/4/5 194/4/5
f 196/4/5 141/4/5 158/4/5
f 196/4/5 158/4/5 195/4/5
f 197/3/5 184/3/5 183/3/5
f 198/4/5 185/4/5 184/4/5
f 198/3/5 184/3/5 197/3/5
f 199/1/5 186/1/5 185/1/5
f 199/4/5 185/4/5 198/4/5
f 200/4/5 187/4/5 186/4/5
f 200/1/5 186/1/5 199/1/5
f 201/1/5 188/1/5 187/1/5
f 201/4/5 187/4/5 200/4/5
f 202/4/5 189/4/5 188/4/5
f 202/1/5 188/1/5 201/1/5
f 203/1/5 190/1/5 189/1/5
f 203/4/5 189/4/5 202/4/5
f 204/4/5 191/4/5 190/4/5
f 204/1/5 190/1/5 203/1/5
f 205/1/5 192/1/5 191/1/5
f 205/4/5 191/4/5 204/4/5
f 206/4/5 193/4/5 192/4/5
f 206/1/5 192/1/5 205/1/5
f 207/1/5 194/1/5 193/1/5
f 207/4/5 193/4/5 206/4/5
f 208/4/5 195/4/5 194/4/5
f 208/1/5 194/1/5 207/1/5
f 209/1/5 196/1/5 195/1/5
f 209/4/5 195/4/5 208/4/5
f 210/4/5 141/4/5 196/4/5
f 210/1/5 196/1/5 209/1/5
f 211/3/5 142/3/5 141/3/5
f 211/4/5 141/4/5 210/4/5
f 212/3/5 142/3/5 211/3/5
f 215/4/6 216/4/6 227/4/6
f 216/2/6 217/2/6 227/2/6
f 217/4/6 218/4/6 228/4/6
f 227/2/6 217/2/6 228/2/6
f 213/4/6 214/4/6 230/4/6
f 214/2/6 215/2/6 231/2/6
f 230/4/6 214/4/6 231/4/6
f 215/4/6 227/4/6 232/4/6
f 231/2/6 215/2/6 232/2/6
f 227/1/6 228/1/6 233/1/6
f 232/4/6 227/4/6 233/4/6
f 228/4/6 218/4/6 234/4/6
f 233/1/6 228/1/6 234/1/6
f 218/1/6 219/1/6 235/1/6
f 234/4/6 218/4/6 235/4/6
f 219/4/6 220/4/6 236/4/6
f 235/1/6 219/1/6 236/1/6
f 220/1/6 221/1/6 237/1/6
f 236/4/6 220/4/6 237/4/6
f 221/4/6 222/4/6 238/4/6
f 237/1/6 221/1/6 238/1/6
f 222/2/6 223/2/6 239/2/6
f 238/4/6 222/4/6 239/4/6
f 223/4/6 224/4/6 240/4/6
f 239/2/6 223/2/6 240/2/6
f 224/2/6 225/2/6 241/2/6
f 240/4/6 224/4/6 241/4/6
f 225/4/6 226/4/6 242/4/6
f 241/2/6 225/2/6 242/2/6
f 232/4/6 233/4/6 243/4/6
f 229/4/6 230/4/6 243/4/6
f 241/4/6 242/4/6 243/4/6
f 240/4/6 241/4/6 243/4/6
f 231/4/6 232/4/6 243/4/6
f 238/4/6 239/4/6 243/4/6
f 237/4/6 238/4/6 243/4/6
f 236/4/6 237/4/6 243/4/6
f 235/4/6 236/4/6 243/4/6
f 234/4/6 235/4/6 243/4/6
f 233/4/6 234/4/6 243/4/6
f 230/4/6 231/4/6 243/4/6
f 239/4/6 240/4/6 243/4/6
f 243/4/6 242/4/6 244/4/6
f 243/1/6 244/1/6 245/1/6
f 244/4/6 242/4/6 246/4/6
f 245/1/6 244/1/6 246/1/6
f 245/4/6 246/4/6 247/4/6
f 246/4/6 242/4/6 248/4/6
f 247/4/6 246/4/6 248/4/6
f 247/1/6 248/1/6 249/1/6
f 248/4/6 242/4/6 250/4/6
f 249/1/6 248/1/6 250/1/6
f 249/4/6 250/4/6 251/4/6
f 250/4/6 242/4/6 252/4/6
f 251/4/6 250/4/6 252/4/6
f 251/1/6 252/1/6 253/1/6
f 252/4/6 242/4/6 254/4/6
f 253/1/6 252/1/6 254/1/6
f 253/4/6 254/4/6 255/4/6
f 254/4/6 242/4/6 256/4/6
f 255/4/6 254/4/6 256/4/6
f 255/1/6 256/1/6 257/1/6
f 256/4/6 242/4/6 258/4/6
f 257/1/6 256/1/6 258/1/6
f 257/4/6 258/4/6 259/4/6
f 258/4/6 242/4/6 260/4/6
f 259/4/6 258/4/6 260/4/6
f 259/1/6 260/1/6 261/1/6
f 260/4/6 242/4/6 262/4/6
f 261/1/6 260/1/6 262/1/6
f 261/4/6 262/4/6 263/4/6
f 262/4/6 242/4/6 264/4/6
f 263/4/6 262/4/6 264/4/6
f 263/1/6 264/1/6 265/1/6
f 264/4/6 242/4/6 266/4/6
f 265/1/6 264/1/6 266/1/6
f 265/4/6 266/4/6 267/4/6
f 266/4/6 242/4/6 268/4/6
f 267/4/6 266/4/6 268/4/6
f 268/4/6 242/4/6 269/4/6
f 269/4/6 242/4/6 270/4/6
f 270/4/6 242/4/6 271/4/6
f 271/4/6 242/4/6 272/4/6
f 272/4/6 242/4/6 273/4/6
f 273/4/6 242/4/6 274/4/6
f 274/4/6 242/4/6 275/4/6
f 275/4/6 242/4/6 276/4/6
f 276/4/6 242/4/6 277/4/6
f 277/4/6 242/4/6 278/4/6
f 278/4/6 242/4/6 279/4/6
f 242/4/6 226/4/6 280/4/6
f 279/4/6 242/4/6 280/4/6
f 268/4/6 269/4/6 281/4/6
f 269/1/6 270/1/6 282/1/6
f 281/4/6 269/4/6 282/4/6
f 270/4/6 271/4/6 283/4/6
f 282/1/6 270/1/6 283/1/6
f 271/1/6 272/1/6 284/1/6
f 283/4/6 271/4/6 284/4/6
f 272/4/6 273/4/6 285/4/6
f 284/1/6 272/1/6 285/1/6
f 273/1/6 274/1/6 286/1/6
f 285/4/6 273/4/6 286/4/6
f 274/4/6 275/4/6 287/4/6
f 286/1/6 274/1/6 287/1/6
f 275/1/6 276/1/6 288/1/6
f 287/4/6 275/4/6 288/4/6
f 276/4/6 277/4/6 289/4/6
f 288/1/6 276/1/6 289/1/6
f 277/1/6 278/1/6 290/1/6
f 289/4/6 277/4/6 290/4/6
f 278/4/6 279/4/6 291/4/6
f 290/1/6 278/1/6 291/1/6
f 279/1/6 280/1/6 292/1/6
f 291/4/6 279/4/6 292/4/6
f 280/4/6 226/4/6 293/4/6
f 292/1/6 280/1/6 293/1/6
f 293/4/6 226/4/6 294/4/6
f 295/3/6 296/3/6 299/3/6
f 299/3/6 296/3/6 300/3/6
f 301/3/6 302/3/6 303/3/6
f 303/3/6 302/3/6 304/3/6
f 297/3/6 298/3/6 305/3/6
f 305/3/6 298/3/6 306/3/6
